<svg xmlns="http://www.w3.org/2000/svg" width="500" height="500" viewBox="0 0 500 500"><g transform="translate(133.59798445847503,133.80281690140842)translate(116.15140845070424,116.15140845070424)rotate(0)translate(-116.15140845070424,-116.15140845070424) scale(14.51892605633803,14.51892605633803)" opacity="1"><defs class="defs"/><path transform="translate(0,0)" d="M13.5,8.5c0,-0.335 -0.035,-0.663 -0.093,-0.981l2.593,-0.519l-1,-1l-1.923,0.385c-0.71,-1.701 -2.249,-2.964 -4.111,-3.295l-0.966,-3.09l-0.966,3.09c-2.576,0.457 -4.534,2.702 -4.534,5.41l-2.5,0.5l1,1l1.629,-0.326c0.229,1.054 0.758,1.994 1.496,2.728l-1.125,3.598l1,-1l0.752,-2.068c0.911,0.668 2.032,1.068 3.248,1.068c1.217,0 2.337,-0.4 3.248,-1.068l0.752,2.068l1,1l-1.125,-3.599c1.003,-0.996 1.625,-2.376 1.625,-3.901zM12.058,6.588l-1.881,0.376l-0.859,-2.744c1.213,0.375 2.204,1.236 2.74,2.368zM9.152,7.169l-2.485,0.498l1.333,-3.667zM6.681,4.22l-1.148,3.674l-2.012,0.402c0.088,-1.928 1.388,-3.528 3.16,-4.076zM3.614,9.478l1.52,-0.304l-0.654,2.094c-0.411,-0.52 -0.717,-1.122 -0.866,-1.79zM8,13c-1.102,0 -2.099,-0.413 -2.882,-1.073l1.079,-2.966l3.363,-0.673l1.323,3.639c-0.783,0.66 -1.781,1.073 -2.883,1.073zM10.529,8.094l1.892,-0.378c0.045,0.256 0.079,0.515 0.079,0.784c0,1.049 -0.375,2.002 -0.979,2.768z" fill="#000000" class="fill c1"/></g></svg>